<svg height="1310" width="1862" xmlns="http://www.w3.org/2000/svg"><path d="M939.817 115.74h141.802v546.5l460.856-546.5h175.776l-358.936 426.862 401.772 651.37H1595.65l-336.78-553.887-177.252 209.739v344.147H939.817zM100.913 883.938c0-113.802 60.473-209.869 148.969-264.553-67.847-50.25-113.57-130.06-113.57-226.126 0-171.442 131.269-292.634 312.686-292.634 176.992 0 311.211 121.192 311.211 292.634 0 97.544-47.198 175.876-116.52 226.126 87.021 54.684 147.494 150.75 147.494 264.553 0 187.7-135.694 325.149-345.135 325.149-210.916 0-345.135-137.45-345.135-325.15zm139.818.905c0 107.566 82.63 194.503 205.101 194.503 123.946 0 208.053-86.937 208.053-194.503 0-107.567-81.156-195.978-205.102-195.978s-208.052 88.411-208.052 195.978zm30.23-491.987c0 96.114 70.955 170.048 177.388 170.048s180.343-75.413 180.343-170.048-70.955-170.048-177.387-170.048-180.343 75.412-180.343 170.048z" fill-rule="evenodd"/></svg>